<?xml version="1.0" encoding="UTF-8"?>
<svg id="Layer_1" data-name="Layer 1" xmlns="http://www.w3.org/2000/svg" xmlns:xlink="http://www.w3.org/1999/xlink" viewBox="0 0 280.46 90.42">
  <defs>
    <style>
      .cls-1 {
        fill: none;
      }

      .cls-2 {
        fill: #f78f1d;
      }

      .cls-3 {
        fill: #fcac14;
      }

      .cls-4 {
        fill: #fcae13;
      }

      .cls-5 {
        fill: #f78c1e;
      }

      .cls-6 {
        fill: #ffc40c;
      }

      .cls-7 {
        fill: #feba0f;
      }

      .cls-8 {
        fill: #f9991a;
      }

      .cls-9 {
        fill: #f78e1d;
      }

      .cls-10 {
        fill: #fdb411;
      }

      .cls-11 {
        fill: #fcaf13;
      }

      .cls-12 {
        fill: #fcb013;
      }

      .cls-13 {
        fill: #f9981a;
      }

      .cls-14 {
        fill: #faa416;
      }

      .cls-15 {
        fill: #fcb112;
      }

      .cls-16 {
        fill: #fba715;
      }

      .cls-17 {
        fill: #faa217;
      }

      .cls-18 {
        fill: #febe0e;
      }

      .cls-19 {
        fill: #febb0f;
      }

      .cls-20 {
        fill: #f99b19;
      }

      .cls-21 {
        fill: #f8901d;
      }

      .cls-22 {
        fill: #ffc20d;
      }

      .cls-23 {
        fill: #fba615;
      }

      .cls-24 {
        fill: #fdb710;
      }

      .cls-25 {
        fill: #fdb312;
      }

      .cls-26 {
        fill: #fdb910;
      }

      .cls-27 {
        fill: #f78d1e;
      }

      .cls-28 {
        fill: #f8951b;
      }

      .cls-29 {
        fill: #faa316;
      }

      .cls-30 {
        fill: #febd0e;
      }

      .cls-31 {
        fill: #ffc10d;
      }

      .cls-32 {
        fill: #f99d18;
      }

      .cls-33 {
        fill: #febf0e;
      }

      .cls-34 {
        fill: #f8921c;
      }

      .cls-35 {
        fill: #fa9f18;
      }

      .cls-36 {
        fill: #f8931c;
      }

      .cls-37 {
        fill: #f8911c;
      }

      .cls-38 {
        fill: #faa117;
      }

      .cls-39 {
        fill: #f99a19;
      }

      .cls-40 {
        fill: #fbab14;
      }

      .cls-41 {
        fill: #febc0f;
      }

      .cls-42 {
        fill: #fba915;
      }

      .cls-43 {
        fill: #f8941b;
      }

      .cls-44 {
        fill: #fdb511;
      }

      .cls-45 {
        fill: #f8961b;
      }

      .cls-46 {
        fill: #fba516;
      }

      .cls-47 {
        fill: #f9971a;
      }

      .cls-48 {
        fill: #faa017;
      }

      .cls-49 {
        fill: #fec00d;
      }

      .cls-50 {
        fill: #fcad14;
      }

      .cls-51 {
        fill: #fdb810;
      }

      .cls-52 {
        fill: #ffc30c;
      }

      .cls-53 {
        fill: #fbaa15;
      }

      .cls-54 {
        fill: #fa9e18;
      }

      .cls-55 {
        clip-path: url(#clippath);
      }

      .cls-56 {
        fill: #fdb611;
      }

      .cls-57 {
        fill: #f99c19;
      }

      .cls-58 {
        fill: #fcb212;
      }
    </style>
    <clipPath id="clippath">
      <circle class="cls-1" cx="78.46" cy="69.22" r="13.49"/>
    </clipPath>
  </defs>
  <g>
    <path d="M0,42.88v-4.05C0,11.53,9.81,0,31.05,0s31.05,11.53,31.05,38.84v4.05c0,18.91-4.75,30.24-14.67,35.5l4.85,12.04h-14.66l-3.44-8.8c-1.01,0-2.12.1-3.14.1C9.81,81.72,0,70.19,0,42.88ZM40.05,60.07c1.92-3.84,2.53-9.81,2.53-17.19v-4.05c0-13.65-1.92-22.25-11.02-22.25h-1.01c-9.1,0-11.02,8.6-11.02,22.25v4.05c0,12.14,1.52,20.23,8.09,21.95l-4.65-12.14h14.16l2.93,7.38Z"/>
    <path d="M146.45,1.42v16.59h-30.34v13.75h25.28v16.59h-25.28v15.37h30.34v16.59h-49.56V1.42h49.56Z"/>
    <path d="M180.84,80.3h-25.28V1.42h25.28c24.78,0,34.08,10.11,34.08,37.42v4.05c0,27.31-9.3,37.42-34.08,37.42ZM179.83,63.72c13.15,0,15.58-7.18,15.58-20.83v-4.05c0-13.65-2.43-20.83-15.58-20.83h-5.06v45.71h5.06Z"/>
    <path d="M251.13,65.13h1.01c6.78,0,9.1-5.06,9.1-12.14h19.22v.91c0,20.33-10.01,27.81-29.33,27.81-21.24,0-30.54-11.53-30.54-38.84v-4.05c0-27.31,9.3-38.84,30.54-38.84,19.32,0,29.33,7.48,29.33,27.81v3.94h-19.22c0-9.1-1.52-15.17-9.1-15.17h-1.01c-9.61,0-11.02,8.6-11.02,22.25v4.05c0,13.65,1.42,22.25,11.02,22.25Z"/>
  </g>
  <g class="cls-55">
    <rect class="cls-5" x="64.98" y="55.73" width="26.97" height=".48"/>
    <rect class="cls-27" x="64.98" y="56.21" width="26.97" height=".48"/>
    <rect class="cls-9" x="64.98" y="56.69" width="26.97" height=".48"/>
    <rect class="cls-2" x="64.98" y="57.18" width="26.97" height=".48"/>
    <rect class="cls-21" x="64.98" y="57.66" width="26.97" height=".48"/>
    <rect class="cls-37" x="64.98" y="58.14" width="26.97" height=".48"/>
    <rect class="cls-34" x="64.98" y="58.62" width="26.97" height=".48"/>
    <rect class="cls-36" x="64.98" y="59.1" width="26.97" height=".48"/>
    <rect class="cls-43" x="64.98" y="59.58" width="26.97" height=".48"/>
    <rect class="cls-28" x="64.98" y="60.07" width="26.97" height=".48"/>
    <rect class="cls-45" x="64.98" y="60.55" width="26.97" height=".48"/>
    <rect class="cls-47" x="64.98" y="61.03" width="26.97" height=".48"/>
    <rect class="cls-13" x="64.98" y="61.51" width="26.97" height=".48"/>
    <rect class="cls-8" x="64.98" y="61.99" width="26.97" height=".48"/>
    <rect class="cls-39" x="64.98" y="62.47" width="26.97" height=".48"/>
    <rect class="cls-20" x="64.98" y="62.96" width="26.97" height=".48"/>
    <rect class="cls-57" x="64.98" y="63.44" width="26.97" height=".48"/>
    <rect class="cls-32" x="64.98" y="63.92" width="26.97" height=".48"/>
    <rect class="cls-54" x="64.98" y="64.4" width="26.97" height=".48"/>
    <rect class="cls-35" x="64.98" y="64.88" width="26.97" height=".48"/>
    <rect class="cls-48" x="64.98" y="65.36" width="26.97" height=".48"/>
    <rect class="cls-38" x="64.98" y="65.84" width="26.97" height=".48"/>
    <rect class="cls-17" x="64.98" y="66.33" width="26.97" height=".48"/>
    <rect class="cls-29" x="64.98" y="66.81" width="26.97" height=".48"/>
    <rect class="cls-14" x="64.98" y="67.29" width="26.97" height=".48"/>
    <rect class="cls-46" x="64.98" y="67.77" width="26.97" height=".48"/>
    <rect class="cls-23" x="64.98" y="68.25" width="26.97" height=".48"/>
    <rect class="cls-16" x="64.98" y="68.73" width="26.97" height=".48"/>
    <rect class="cls-42" x="64.98" y="69.22" width="26.97" height=".48"/>
    <rect class="cls-53" x="64.98" y="69.7" width="26.97" height=".48"/>
    <rect class="cls-40" x="64.98" y="70.18" width="26.97" height=".48"/>
    <rect class="cls-3" x="64.98" y="70.66" width="26.97" height=".48"/>
    <rect class="cls-50" x="64.98" y="71.14" width="26.97" height=".48"/>
    <rect class="cls-4" x="64.98" y="71.62" width="26.97" height=".48"/>
    <rect class="cls-11" x="64.98" y="72.11" width="26.97" height=".48"/>
    <rect class="cls-12" x="64.98" y="72.59" width="26.97" height=".48"/>
    <rect class="cls-15" x="64.98" y="73.07" width="26.97" height=".48"/>
    <rect class="cls-58" x="64.98" y="73.55" width="26.97" height=".48"/>
    <rect class="cls-25" x="64.98" y="74.03" width="26.97" height=".48"/>
    <rect class="cls-10" x="64.98" y="74.51" width="26.97" height=".48"/>
    <rect class="cls-44" x="64.98" y="75" width="26.97" height=".48"/>
    <rect class="cls-56" x="64.98" y="75.48" width="26.97" height=".48"/>
    <rect class="cls-24" x="64.98" y="75.96" width="26.97" height=".48"/>
    <rect class="cls-51" x="64.98" y="76.44" width="26.97" height=".48"/>
    <rect class="cls-26" x="64.98" y="76.92" width="26.97" height=".48"/>
    <rect class="cls-7" x="64.98" y="77.4" width="26.97" height=".48"/>
    <rect class="cls-19" x="64.98" y="77.89" width="26.97" height=".48"/>
    <rect class="cls-41" x="64.98" y="78.37" width="26.97" height=".48"/>
    <rect class="cls-30" x="64.98" y="78.85" width="26.97" height=".48"/>
    <rect class="cls-18" x="64.98" y="79.33" width="26.97" height=".48"/>
    <rect class="cls-33" x="64.98" y="79.81" width="26.97" height=".48"/>
    <rect class="cls-49" x="64.98" y="80.29" width="26.97" height=".48"/>
    <rect class="cls-31" x="64.98" y="80.78" width="26.97" height=".48"/>
    <rect class="cls-22" x="64.98" y="81.26" width="26.97" height=".48"/>
    <rect class="cls-52" x="64.98" y="81.74" width="26.97" height=".48"/>
    <rect class="cls-6" x="64.98" y="82.22" width="26.97" height=".48"/>
  </g>
</svg>